<svg width="24" height="25" viewBox="0 0 24 25" fill="none" xmlns="http://www.w3.org/2000/svg">
<path d="M19 19.1166H5V8.11658H19M19 3.11658H18V1.11658H16V3.11658H8V1.11658H6V3.11658H5C3.89 3.11658 3 4.01658 3 5.11658V19.1166C3 19.647 3.21071 20.1557 3.58579 20.5308C3.96086 20.9059 4.46957 21.1166 5 21.1166H19C19.5304 21.1166 20.0391 20.9059 20.4142 20.5308C20.7893 20.1557 21 19.647 21 19.1166V5.11658C21 4.58614 20.7893 4.07744 20.4142 3.70236C20.0391 3.32729 19.5304 3.11658 19 3.11658ZM16.53 11.1766L15.47 10.1166L10.59 14.9966L8.47 12.8766L7.41 13.9366L10.59 17.1166L16.53 11.1766Z" fill="#FFF500"/>
</svg>
