<svg width="46" height="46" viewBox="0 0 46 46" fill="none" xmlns="http://www.w3.org/2000/svg">
<path d="M28.75 24.9167H31.625V30.3217L36.3017 33.0242L34.8642 35.5158L28.75 31.9892V24.9167ZM36.4167 15.3333H9.58333V36.4167H18.5342C17.71 34.6725 17.25 32.7175 17.25 30.6667C17.25 27.1083 18.6635 23.6958 21.1797 21.1796C23.6958 18.6635 27.1083 17.25 30.6667 17.25C32.7175 17.25 34.6725 17.71 36.4167 18.5342V15.3333ZM9.58333 40.25C7.45583 40.25 5.75 38.525 5.75 36.4167V9.58332C5.75 7.45582 7.45583 5.74999 9.58333 5.74999H11.5V1.91666H15.3333V5.74999H30.6667V1.91666H34.5V5.74999H36.4167C37.4333 5.74999 38.4084 6.15386 39.1272 6.87275C39.8461 7.59164 40.25 8.56666 40.25 9.58332V21.275C42.6267 23.69 44.0833 27.0058 44.0833 30.6667C44.0833 34.225 42.6698 37.6376 40.1537 40.1537C37.6376 42.6698 34.225 44.0833 30.6667 44.0833C27.0058 44.0833 23.69 42.6267 21.275 40.25H9.58333ZM30.6667 21.3708C28.2013 21.3708 25.8368 22.3502 24.0935 24.0935C22.3502 25.8368 21.3708 28.2013 21.3708 30.6667C21.3708 35.8033 25.53 39.9625 30.6667 39.9625C31.8874 39.9625 33.0962 39.722 34.224 39.2549C35.3518 38.7877 36.3766 38.103 37.2398 37.2398C38.103 36.3766 38.7877 35.3518 39.2549 34.224C39.7221 33.0962 39.9625 31.8874 39.9625 30.6667C39.9625 25.53 35.8033 21.3708 30.6667 21.3708Z" fill="url(#paint0_linear_2892_3)" fill-opacity="0.8"/>
<defs>
<linearGradient id="paint0_linear_2892_3" x1="11" y1="16.5" x2="24.9167" y2="44.0833" gradientUnits="userSpaceOnUse">
<stop stop-color="#B17ED0"/>
<stop offset="1" stop-color="white" stop-opacity="0"/>
</linearGradient>
</defs>
</svg>
