<svg width="20" height="20" viewBox="0 0 20 20" fill="none" xmlns="http://www.w3.org/2000/svg">
<path d="M10 4.0625C11.0355 4.0625 11.875 3.22303 11.875 2.1875C11.875 1.15197 11.0355 0.3125 10 0.3125C8.96447 0.3125 8.125 1.15197 8.125 2.1875C8.125 3.22303 8.96447 4.0625 10 4.0625Z" fill="#7A838B"/>
<path d="M6.5625 13.4375H13.4375C14.4321 13.4375 15.3859 13.8326 16.0892 14.5358C16.7924 15.2391 17.1875 16.1929 17.1875 17.1875V19.6875H2.8125V17.1875C2.8125 16.1929 3.20759 15.2391 3.91085 14.5358C4.61411 13.8326 5.56794 13.4375 6.5625 13.4375Z" fill="#A7D0E1"/>
<path d="M6.25 18.75C5.58696 18.75 4.95107 18.4866 4.48223 18.0178C4.01339 17.5489 3.75 16.9131 3.75 16.25C3.74931 15.4846 3.98422 14.7376 4.42281 14.1103C3.92579 14.455 3.51967 14.915 3.23923 15.4509C2.95879 15.9868 2.81237 16.5827 2.8125 17.1875V19.6875H17.1875V18.75H6.25Z" fill="#80BBCE"/>
<path d="M8.4375 18.125L7.8125 19.6875H2.8125V17.1875C2.8125 16.1929 3.20759 15.2391 3.91085 14.5358C4.61411 13.8326 5.56794 13.4375 6.5625 13.4375L8.4375 18.125Z" fill="#7A838B"/>
<path d="M8.1875 18.75L7.8125 19.6875H2.8125V17.1875C2.81238 16.5826 2.9587 15.9867 3.23896 15.4507C3.51922 14.9147 3.92508 14.4544 4.42188 14.1094C3.98431 14.7374 3.74982 15.4845 3.75 16.25C3.75 16.913 4.01339 17.5489 4.48223 18.0178C4.95107 18.4866 5.58696 18.75 6.25 18.75H8.1875Z" fill="#5D6972"/>
<path d="M11.5625 18.125L12.1875 19.6875H17.1875V17.1875C17.1875 16.1929 16.7924 15.2391 16.0892 14.5358C15.3859 13.8326 14.4321 13.4375 13.4375 13.4375L11.5625 18.125Z" fill="#7A838B"/>
<path d="M12.1875 19.6875H17.1875V18.75H11.8125L12.1875 19.6875Z" fill="#5D6972"/>
<path d="M10.9375 12.8125V11.5625H9.0625V12.8125C9.0625 12.9783 8.99665 13.1372 8.87944 13.2544C8.76223 13.3717 8.60326 13.4375 8.4375 13.4375H7.8125L10 15.625L12.1875 13.4375H11.5625C11.3967 13.4375 11.2378 13.3717 11.1206 13.2544C11.0033 13.1372 10.9375 12.9783 10.9375 12.8125Z" fill="#FFD3B6"/>
<path d="M9.0625 12.6797C9.67495 12.8568 10.325 12.8568 10.9375 12.6797V11.5625H9.0625V12.6797Z" fill="#F9B995"/>
<path d="M10 4.0625C10.2715 4.06419 10.54 4.00656 10.7868 3.89363C11.0337 3.78071 11.2529 3.61522 11.4291 3.40874C11.6053 3.20227 11.7343 2.95978 11.807 2.69826C11.8797 2.43674 11.8944 2.16248 11.85 1.89469C11.3669 1.676 10.8428 1.56276 10.3125 1.5625H9.68753C9.15725 1.56276 8.63312 1.676 8.15003 1.89469C8.10569 2.16248 8.12039 2.43674 8.1931 2.69826C8.26581 2.95978 8.39478 3.20227 8.57099 3.40874C8.7472 3.61522 8.96638 3.78071 9.21322 3.89363C9.46006 4.00656 9.72859 4.06419 10 4.0625Z" fill="#5D6972"/>
<path d="M9.6875 2.1875H10.3125C11.3071 2.1875 12.2609 2.58259 12.9642 3.28585C13.6674 3.98911 14.0625 4.94294 14.0625 5.9375V7.5H5.9375V5.9375C5.9375 4.94294 6.33259 3.98911 7.03585 3.28585C7.73911 2.58259 8.69294 2.1875 9.6875 2.1875Z" fill="#7A838B"/>
<path d="M9.0625 4.6875H10.9375C11.6005 4.6875 12.2364 4.95089 12.7053 5.41973C13.1741 5.88857 13.4375 6.52446 13.4375 7.1875V8.75C13.4375 9.66168 13.0753 10.536 12.4307 11.1807C11.786 11.8253 10.9117 12.1875 10 12.1875C9.08832 12.1875 8.21398 11.8253 7.56932 11.1807C6.92466 10.536 6.5625 9.66168 6.5625 8.75V7.1875C6.5625 6.52446 6.82589 5.88857 7.29473 5.41973C7.76357 4.95089 8.39946 4.6875 9.0625 4.6875Z" fill="#FFD3B6"/>
<path d="M10.9375 11.25C10.4861 11.25 10.0391 11.1611 9.62203 10.9883C9.20497 10.8156 8.82602 10.5624 8.50682 10.2432C7.86216 9.59853 7.5 8.72419 7.5 7.81251V6.25001C7.49991 5.81692 7.61291 5.39132 7.82781 5.01532C7.44372 5.23322 7.12425 5.54905 6.90198 5.93064C6.6797 6.31222 6.56257 6.74591 6.5625 7.18751V8.75001C6.56253 9.48678 6.79928 10.2041 7.23785 10.7961C7.67642 11.3881 8.2936 11.8235 8.9984 12.0382C9.70321 12.2529 10.4583 12.2354 11.1525 11.9884C11.8466 11.7414 12.443 11.2779 12.8538 10.6663C12.2876 11.0477 11.6202 11.251 10.9375 11.25Z" fill="#F9B995"/>
<path d="M6.25 7.1875H6.875V9.0625H6.25C6.00136 9.0625 5.7629 8.96373 5.58709 8.78791C5.41127 8.6121 5.3125 8.37364 5.3125 8.125C5.3125 7.87636 5.41127 7.6379 5.58709 7.46209C5.7629 7.28627 6.00136 7.1875 6.25 7.1875Z" fill="#F9B995"/>
<path d="M13.75 9.0625H13.125V7.1875H13.75C13.9986 7.1875 14.2371 7.28627 14.4129 7.46209C14.5887 7.6379 14.6875 7.87636 14.6875 8.125C14.6875 8.37364 14.5887 8.6121 14.4129 8.78791C14.2371 8.96373 13.9986 9.0625 13.75 9.0625Z" fill="#FFD3B6"/>
<path d="M11.8748 3.54437C11.8199 3.54437 11.766 3.52981 11.7186 3.50218C11.5408 3.39902 11.3522 3.3158 11.1561 3.25405C11.1159 3.24267 11.0783 3.22333 11.0457 3.19718C11.0131 3.17103 10.9861 3.13861 10.9662 3.10183C10.9464 3.06505 10.9341 3.02466 10.9301 2.98305C10.9262 2.94144 10.9306 2.89945 10.9431 2.85958C10.9557 2.81971 10.9761 2.78276 11.0032 2.75092C11.0302 2.71907 11.0634 2.69299 11.1008 2.6742C11.1381 2.65542 11.1788 2.64432 11.2206 2.64155C11.2623 2.63879 11.3041 2.64442 11.3436 2.65811C11.5832 2.73372 11.8138 2.83559 12.0311 2.96187C12.0904 2.9964 12.1366 3.04947 12.1627 3.1129C12.1888 3.17633 12.1934 3.24658 12.1756 3.31283C12.1578 3.37908 12.1187 3.43764 12.0644 3.47948C12.01 3.52133 11.9434 3.54413 11.8748 3.54437Z" fill="white"/>
<path d="M4.375 19.6875C4.37504 19.6622 4.37818 19.637 4.38437 19.6125L4.97187 17.2594C4.99063 17.1858 5.00008 17.1103 5 17.0344V16.5625C5 16.4796 5.03292 16.4001 5.09153 16.3415C5.15013 16.2829 5.22962 16.25 5.3125 16.25C5.39538 16.25 5.47487 16.2829 5.53347 16.3415C5.59208 16.4001 5.625 16.4796 5.625 16.5625V17.0344C5.62501 17.1619 5.60927 17.2889 5.57813 17.4125L5.00938 19.6875H4.375ZM15.625 19.6875H14.9906L14.4219 17.4125C14.3907 17.2889 14.375 17.1619 14.375 17.0344V16.5625C14.375 16.4796 14.4079 16.4001 14.4665 16.3415C14.5251 16.2829 14.6046 16.25 14.6875 16.25C14.7704 16.25 14.8499 16.2829 14.9085 16.3415C14.9671 16.4001 15 16.4796 15 16.5625V17.0344C15.0001 17.1113 15.0095 17.1879 15.0281 17.2625L15.6156 19.6125C15.6218 19.637 15.625 19.6622 15.625 19.6875Z" fill="#5D6972"/>
<path d="M7.8125 8.12499C7.8125 8.20787 7.77958 8.28736 7.72097 8.34596C7.66237 8.40457 7.58288 8.43749 7.5 8.43749H6.5625V7.81249H7.5C7.58288 7.81249 7.66237 7.84542 7.72097 7.90402C7.77958 7.96263 7.8125 8.04211 7.8125 8.12499ZM13.4375 7.81249V8.43749H12.5C12.4171 8.43749 12.3376 8.40457 12.279 8.34596C12.2204 8.28736 12.1875 8.20787 12.1875 8.12499C12.1875 8.04211 12.2204 7.96263 12.279 7.90402C12.3376 7.84542 12.4171 7.81249 12.5 7.81249H13.4375ZM10.625 8.43749C10.5421 8.43748 10.4627 8.40454 10.4041 8.34593C10.3604 8.27847 10.3006 8.22301 10.23 8.18461C10.1594 8.14621 10.0803 8.12609 10 8.12609C9.91965 8.12609 9.84058 8.14621 9.77 8.18461C9.69942 8.22301 9.63958 8.27847 9.59594 8.34593C9.537 8.40286 9.45806 8.43435 9.37612 8.43364C9.29419 8.43293 9.21581 8.40006 9.15787 8.34212C9.09993 8.28418 9.06706 8.20581 9.06635 8.12387C9.06564 8.04193 9.09714 7.96299 9.15406 7.90406C9.25633 7.77838 9.38532 7.67707 9.53165 7.60748C9.67798 7.5379 9.83797 7.5018 10 7.5018C10.162 7.5018 10.322 7.5379 10.4684 7.60748C10.6147 7.67707 10.7437 7.77838 10.8459 7.90406C10.8896 7.94776 10.9194 8.00344 10.9314 8.06405C10.9435 8.12466 10.9373 8.18748 10.9136 8.24457C10.89 8.30167 10.85 8.35047 10.7986 8.38481C10.7472 8.41915 10.6868 8.43748 10.625 8.43749Z" fill="#7A838B"/>
<path d="M7.5 7.1875H9.375V9.0625H7.5V7.1875Z" fill="#A7D0E1"/>
<path d="M8.4375 7.1875H7.5V9.0625H9.375V8.125C9.12636 8.125 8.8879 8.02623 8.71209 7.85041C8.53627 7.6746 8.4375 7.43614 8.4375 7.1875Z" fill="#80BBCE"/>
<path d="M10.625 7.1875H12.5V9.0625H10.625V7.1875Z" fill="#A7D0E1"/>
<path d="M11.5625 7.1875H10.625V9.0625H12.5V8.125C12.2514 8.125 12.0129 8.02623 11.8371 7.85041C11.6613 7.6746 11.5625 7.43614 11.5625 7.1875Z" fill="#80BBCE"/>
</svg>
