<svg width="21" height="21" viewBox="0 0 21 21" fill="none" xmlns="http://www.w3.org/2000/svg">
<path d="M7.62109 17.2742H15.7501V18.629H7.62109V17.2742Z" fill="#736572"/>
<path d="M16.9931 2.5995C16.9648 2.52884 16.9307 2.46069 16.891 2.39577L16.4038 1.92434C16.3358 1.88573 16.2645 1.85308 16.1908 1.82676L12.0243 0.338715L11.6855 0.677422V7.4516H18.4597L18.7984 7.1129L16.9931 2.5995Z" fill="#FF7E92"/>
<path d="M16.8908 2.39576C16.7713 2.19966 16.6036 2.03737 16.4037 1.92433L12.6105 5.98824C12.4007 6.21297 12.0241 6.06457 12.0241 5.75712V0.338707C12.0241 0.248876 11.9885 0.162725 11.9249 0.099205C11.8614 0.0356851 11.7753 0 11.6854 0L11.008 0C10.9182 0 10.832 0.0356851 10.7685 0.099205C10.705 0.162725 10.6693 0.248876 10.6693 0.338707V7.7903H12.0241L12.1718 7.4516L16.8908 2.39576ZM18.4032 9.14517L18.1986 11.6005C18.1547 12.1272 17.7144 12.5323 17.186 12.5323H5.50749L4.61946 11.6005L4.3584 8.46776L4.57254 7.79035H18.1209L18.4032 9.14517Z" fill="#FF5F7A"/>
<path d="M4.57308 7.79031L4.23438 8.46773L4.49544 11.6005C4.53933 12.1271 4.97959 12.5323 5.50807 12.5323H5.51107L5.30665 9.87452C5.27638 9.4811 5.58748 9.14514 5.98205 9.14514H18.4038L18.4602 8.46773L18.1215 7.79031H4.57308Z" fill="#FB4455"/>
<path d="M18.7987 8.12904H3.89551V7.45162C3.89551 7.40714 3.90427 7.3631 3.92129 7.322C3.93831 7.28091 3.96326 7.24357 3.99471 7.21212C4.02616 7.18067 4.0635 7.15572 4.1046 7.1387C4.14569 7.12168 4.18973 7.11292 4.23421 7.11292H18.7987C18.8886 7.11292 18.9747 7.1486 19.0382 7.21212C19.1018 7.27564 19.1374 7.36179 19.1374 7.45162V7.79033C19.1374 7.88016 19.1017 7.9663 19.0382 8.02982C18.9747 8.09334 18.8886 8.12903 18.7987 8.12904Z" fill="#FF7E92"/>
<path d="M4.57276 7.7903C4.52828 7.7903 4.48424 7.78154 4.44314 7.76452C4.40205 7.74749 4.36471 7.72254 4.33326 7.69109C4.30181 7.65964 4.27686 7.6223 4.25984 7.58121C4.24282 7.54012 4.23405 7.49607 4.23405 7.45159V7.11288H3.89535C3.80552 7.11288 3.71937 7.14857 3.65585 7.21209C3.59233 7.27561 3.55664 7.36176 3.55664 7.45159V8.12901C3.55664 8.17348 3.5654 8.21753 3.58242 8.25862C3.59944 8.29972 3.62439 8.33706 3.65585 8.36851C3.6873 8.39996 3.72464 8.42491 3.76573 8.44193C3.80682 8.45895 3.85087 8.46771 3.89535 8.46771H18.7986C18.8431 8.46771 18.8871 8.45895 18.9282 8.44193C18.9693 8.42491 19.0066 8.39996 19.0381 8.36851C19.0695 8.33706 19.0945 8.29972 19.1115 8.25862C19.1285 8.21753 19.1373 8.17348 19.1373 8.12901V7.7903H4.57276Z" fill="#FF5F7A"/>
<path d="M16.1716 14.845L12.7316 11.405L11.5867 10.5456L10.6086 9.28196L4.53244 3.20582C4.2126 2.88598 3.78723 2.70966 3.33471 2.70966H3.21859C3.1741 2.70963 3.13005 2.71837 3.08894 2.73538C3.04783 2.7524 3.01048 2.77734 2.97903 2.8088C2.94757 2.84026 2.92262 2.87761 2.90561 2.91871C2.8886 2.95982 2.87986 3.00388 2.87988 3.04836C2.87986 3.09285 2.8886 3.13691 2.90561 3.17801C2.92262 3.21912 2.94757 3.25647 2.97903 3.28792C3.01048 3.31938 3.04783 3.34433 3.08894 3.36134C3.13005 3.37835 3.1741 3.3871 3.21859 3.38707H3.33471C3.46824 3.38672 3.60052 3.41284 3.72389 3.46394C3.84727 3.51504 3.95928 3.59009 4.05346 3.68476L10.118 9.74933L11.1724 10.599L10.2065 11.8118L7.03801 16.7793C6.93744 16.9371 6.98374 17.1465 7.1412 17.247C7.19551 17.2818 7.25863 17.3003 7.32311 17.3003C7.38007 17.3004 7.43613 17.2861 7.48609 17.2587C7.53605 17.2314 7.57829 17.1918 7.6089 17.1438L10.7645 12.1967L11.4397 10.7994L12.257 11.8883L15.6926 15.3238C15.9487 15.5799 16.0895 15.9202 16.0895 16.2821V17.2741C16.0895 17.3185 16.0983 17.3626 16.1153 17.4037C16.1323 17.4448 16.1572 17.4822 16.1887 17.5136C16.2201 17.5451 16.2575 17.57 16.2986 17.587C16.3397 17.604 16.3838 17.6128 16.4282 17.6128C16.4727 17.6128 16.5168 17.604 16.5579 17.587C16.599 17.57 16.6364 17.5451 16.6678 17.5136C16.6993 17.4822 16.7242 17.4448 16.7412 17.4037C16.7582 17.3626 16.767 17.3185 16.767 17.2741V16.2821C16.767 15.7394 16.5556 15.229 16.1716 14.845Z" fill="#ECEAEC"/>
<path d="M6.26678 16.9355C5.33146 16.9355 4.57324 17.6937 4.57324 18.629C4.57324 19.5643 5.33146 20.3226 6.26678 20.3226C7.2021 20.3226 7.96031 19.5643 7.96031 18.629C7.96035 17.6937 7.20214 16.9355 6.26678 16.9355ZM6.26678 19.3065C5.89267 19.3065 5.58936 19.0032 5.58936 18.6291C5.58936 18.2549 5.89267 17.9516 6.26678 17.9516C6.64092 17.9516 6.94419 18.2549 6.94419 18.6291C6.94419 19.0032 6.64092 19.3065 6.26678 19.3065Z" fill="#ECEAEC"/>
<path d="M6.26646 16.2581C4.95703 16.2581 3.89551 17.3196 3.89551 18.629C3.89551 19.9384 4.95703 21 6.26646 21C7.57588 21 8.63741 19.9384 8.63741 18.629C8.63745 17.3196 7.57592 16.2581 6.26646 16.2581ZM6.26646 19.9839C5.51821 19.9839 4.91163 19.3773 4.91163 18.629C4.91163 17.8808 5.51821 17.2742 6.26646 17.2742C7.01471 17.2742 7.62129 17.8808 7.62129 18.629C7.62129 19.3773 7.01475 19.9839 6.26646 19.9839ZM16.4277 16.9355C15.3054 16.9355 14.3955 17.8453 14.3955 18.9677C14.3955 20.0901 15.3054 21 16.4277 21C17.5501 21 18.46 20.0901 18.46 18.9677C18.46 17.8454 17.5501 16.9355 16.4277 16.9355Z" fill="#615260"/>
<path d="M16.4282 19.9839C16.9894 19.9839 17.4444 19.5289 17.4444 18.9678C17.4444 18.4066 16.9894 17.9516 16.4282 17.9516C15.867 17.9516 15.4121 18.4066 15.4121 18.9678C15.4121 19.5289 15.867 19.9839 16.4282 19.9839Z" fill="#ECEAEC"/>
<path d="M3.21815 2.70969H2.20199C2.1575 2.70966 2.11344 2.7184 2.07234 2.73541C2.03123 2.75243 1.99388 2.77737 1.96243 2.80883C1.93097 2.84029 1.90602 2.87764 1.88901 2.91874C1.872 2.95985 1.86325 3.00391 1.86328 3.04839C1.86325 3.09288 1.872 3.13694 1.88901 3.17804C1.90602 3.21915 1.93097 3.2565 1.96243 3.28796C1.99388 3.31941 2.03123 3.34436 2.07234 3.36137C2.11344 3.37838 2.1575 3.38713 2.20199 3.3871H3.21811V2.70969H3.21815Z" fill="#615260"/>
<path d="M10.6077 9.28201L10.1172 9.74939L10.9745 10.6067L10.2057 11.8119L10.7636 12.1967L11.465 11.0972L12.2562 11.8884L12.7307 11.405L10.6077 9.28201Z" fill="#736572"/>
</svg>
