<svg width="22" height="22" viewBox="0 0 22 22" fill="none" xmlns="http://www.w3.org/2000/svg">
<path d="M10.9997 18.3333C15.033 18.3333 18.333 15.0333 18.333 11C18.333 6.96668 15.033 3.66668 10.9997 3.66668C6.96634 3.66668 3.66634 6.96668 3.66634 11C3.66634 15.0333 6.96634 18.3333 10.9997 18.3333ZM10.9997 1.83334C16.0413 1.83334 20.1663 5.95834 20.1663 11C20.1663 16.0417 16.0413 20.1667 10.9997 20.1667C5.95801 20.1667 1.83301 16.0417 1.83301 11C1.83301 5.95834 5.95801 1.83334 10.9997 1.83334ZM15.583 12.7417L14.9413 13.9333L10.083 11.275V6.41668H11.458V10.45L15.583 12.7417Z" fill="#838383"/>
</svg>
