<svg width="24" height="24" viewBox="0 0 24 24" fill="none" xmlns="http://www.w3.org/2000/svg">
<path d="M21.4698 4.35L20.1298 3.79V12.82L22.5598 6.96C22.9698 5.94 22.4998 4.77 21.4698 4.35ZM1.96976 8.05L6.92976 20C7.23976 20.77 7.96976 21.24 8.73976 21.26C8.99976 21.26 9.26976 21.21 9.52976 21.1L16.8998 18.05C17.6498 17.74 18.1098 17 18.1298 16.26C18.1398 16 18.0898 15.71 17.9998 15.45L12.9998 3.5C12.7098 2.73 11.9698 2.26 11.1898 2.25C10.9298 2.25 10.6698 2.31 10.4198 2.4L3.05976 5.45C2.03976 5.87 1.54976 7.04 1.96976 8.05ZM18.1198 4.25C18.1198 3.71957 17.9091 3.21086 17.534 2.83579C17.1589 2.46071 16.6502 2.25 16.1198 2.25H14.6698L18.1198 10.59" fill="white"/>
</svg>
