<svg width="17" height="17" viewBox="0 0 17 17" fill="none" xmlns="http://www.w3.org/2000/svg">
<path d="M12.5018 4.4979C11.4747 3.47081 10.0651 2.83331 8.49967 2.83331C6.99678 2.83331 5.55544 3.43034 4.49274 4.49304C3.43003 5.55575 2.83301 6.99709 2.83301 8.49998C2.83301 10.0029 3.43003 11.4442 4.49274 12.5069C5.55544 13.5696 6.99678 14.1666 8.49967 14.1666C11.1418 14.1666 13.3447 12.3604 13.9751 9.91665H12.5018C11.9209 11.5671 10.3484 12.75 8.49967 12.75C7.3725 12.75 6.2915 12.3022 5.49447 11.5052C4.69744 10.7082 4.24967 9.62715 4.24967 8.49998C4.24967 7.37281 4.69744 6.29181 5.49447 5.49478C6.2915 4.69775 7.3725 4.24998 8.49967 4.24998C9.67551 4.24998 10.7238 4.73873 11.4888 5.51081L9.20801 7.79165H14.1663V2.83331L12.5018 4.4979Z" fill="#838383"/>
</svg>
