<svg width="20" height="20" viewBox="0 0 20 20" fill="none" xmlns="http://www.w3.org/2000/svg">
<path d="M18.9359 6.4689C18.9359 7.415 18.7787 9.84988 19.1423 10.8483C19.2114 11.038 19.1356 11.2512 18.9568 11.345C17.5876 12.0632 15.5898 12.1679 14.1224 12.1679C12.655 12.1679 10.6572 12.0632 9.28801 11.345C9.10918 11.2512 9.03336 11.038 9.10246 10.8483C9.46609 9.84988 9.30887 7.415 9.30887 6.4689H18.9359Z" fill="#4E5660"/>
<path d="M10.2014 14.2223C9.70078 14.2223 9.32051 13.7653 9.4189 13.2744C9.8589 11.079 11.7975 9.42511 14.1225 9.42511C16.4474 9.42511 18.386 11.079 18.826 13.2744C18.9244 13.7653 18.5441 14.2223 18.0435 14.2223H10.2014Z" fill="#7CDDC5"/>
<path d="M14.1225 9.42511C12.8605 9.42511 11.7129 9.91316 10.8564 10.71C11.7778 11.3601 12.9056 11.7432 14.1225 11.7432C15.3394 11.7432 16.4672 11.3601 17.3886 10.71C16.5321 9.9132 15.3846 9.42511 14.1225 9.42511Z" fill="#6FCE91"/>
<path d="M11.7959 10.0268L13.6587 12.1415C13.9043 12.4203 14.3388 12.4206 14.5844 12.1417L16.4474 10.0268C15.7584 9.64398 14.9657 9.42511 14.1216 9.42511C13.2776 9.42511 12.4849 9.64398 11.7959 10.0268Z" fill="#FFD4BE"/>
<path d="M9.62914 7.57539C10.3941 7.57539 11.0141 6.95921 11.0141 6.1991C11.0141 5.439 10.3941 4.82281 9.62914 4.82281C8.86423 4.82281 8.24414 5.439 8.24414 6.1991C8.24414 6.95921 8.86423 7.57539 9.62914 7.57539Z" fill="#FFBF9E"/>
<path d="M9.20945 8.8411C9.64172 8.8411 9.99215 8.45006 9.99215 7.9677C9.99215 7.48533 9.64172 7.0943 9.20945 7.0943C8.77718 7.0943 8.42676 7.48533 8.42676 7.9677C8.42676 8.45006 8.77718 8.8411 9.20945 8.8411Z" fill="#B49CDC"/>
<path d="M18.6155 7.57539C19.3804 7.57539 20.0005 6.95921 20.0005 6.1991C20.0005 5.439 19.3804 4.82281 18.6155 4.82281C17.8506 4.82281 17.2305 5.439 17.2305 6.1991C17.2305 6.95921 17.8506 7.57539 18.6155 7.57539Z" fill="#FFBF9E"/>
<path d="M19.0346 8.8411C19.4669 8.8411 19.8173 8.45006 19.8173 7.9677C19.8173 7.48533 19.4669 7.0943 19.0346 7.0943C18.6024 7.0943 18.252 7.48533 18.252 7.9677C18.252 8.45006 18.6024 8.8411 19.0346 8.8411Z" fill="#B49CDC"/>
<path d="M11.7959 10.0268L13.2489 11.6763C13.5334 11.7202 13.8248 11.7432 14.1216 11.7432C14.4184 11.7432 14.7098 11.7202 14.9943 11.6763L16.4474 10.0268C15.7584 9.64398 14.9657 9.42511 14.1216 9.42511C13.2776 9.42511 12.4849 9.64398 11.7959 10.0268Z" fill="#FFBF9E"/>
<path d="M14.1225 10.8383C16.7288 10.8383 18.8416 8.76126 18.8416 6.19912C18.8416 3.63697 16.7288 1.55994 14.1225 1.55994C11.5162 1.55994 9.40332 3.63697 9.40332 6.19912C9.40332 8.76126 11.5162 10.8383 14.1225 10.8383Z" fill="#FFD4BE"/>
<path d="M11.1909 8.15095C11.7883 8.15095 12.2725 7.76534 12.2725 7.28966C12.2725 6.81399 11.7883 6.42838 11.1909 6.42838C10.5936 6.42838 10.1094 6.81399 10.1094 7.28966C10.1094 7.76534 10.5936 8.15095 11.1909 8.15095Z" fill="#EDA1AB"/>
<path d="M17.0532 8.15095C17.6506 8.15095 18.1348 7.76534 18.1348 7.28966C18.1348 6.81399 17.6506 6.42838 17.0532 6.42838C16.4559 6.42838 15.9717 6.81399 15.9717 7.28966C15.9717 7.76534 16.4559 8.15095 17.0532 8.15095Z" fill="#EDA1AB"/>
<path d="M11.8213 6.72341C11.7436 6.72341 11.6691 6.69254 11.6141 6.6376C11.5592 6.58266 11.5283 6.50814 11.5283 6.43044V6.04852C11.5283 5.97082 11.5592 5.89631 11.6141 5.84136C11.6691 5.78642 11.7436 5.75555 11.8213 5.75555C11.899 5.75555 11.9735 5.78642 12.0284 5.84136C12.0834 5.89631 12.1143 5.97082 12.1143 6.04852V6.43044C12.1143 6.50814 12.0834 6.58266 12.0284 6.6376C11.9735 6.69254 11.899 6.72341 11.8213 6.72341ZM16.423 6.72341C16.3453 6.72341 16.2708 6.69254 16.2159 6.6376C16.1609 6.58266 16.1301 6.50814 16.1301 6.43044V6.04852C16.1301 5.97082 16.1609 5.89631 16.2159 5.84136C16.2708 5.78642 16.3453 5.75555 16.423 5.75555C16.5007 5.75555 16.5753 5.78642 16.6302 5.84136C16.6851 5.89631 16.716 5.97082 16.716 6.04852V6.43044C16.716 6.50814 16.6851 6.58266 16.6302 6.6376C16.5753 6.69254 16.5007 6.72341 16.423 6.72341ZM14.1221 7.01669C13.9653 7.01664 13.8103 6.98299 13.6675 6.91798C13.5248 6.85298 13.3976 6.75814 13.2946 6.63985C13.2436 6.58127 13.2179 6.50481 13.2232 6.42729C13.2286 6.34977 13.2645 6.27754 13.323 6.22649C13.3816 6.17544 13.4581 6.14976 13.5356 6.15508C13.6131 6.16041 13.6854 6.19631 13.7364 6.25489C13.8338 6.36665 13.9744 6.43079 14.1221 6.43079C14.2699 6.43079 14.4105 6.36669 14.5079 6.25489C14.5593 6.19757 14.6312 6.16279 14.708 6.15806C14.7849 6.15333 14.8605 6.17903 14.9185 6.22961C14.9766 6.28019 15.0124 6.35158 15.0182 6.42835C15.024 6.50512 14.9994 6.5811 14.9496 6.63985C14.8467 6.75815 14.7195 6.85299 14.5768 6.918C14.434 6.983 14.279 7.01665 14.1221 7.01669Z" fill="#4E5660"/>
<path d="M18.5871 5.79211C17.8508 5.47793 17.0937 4.64246 16.6654 3.89289C15.1854 4.75254 11.1379 5.41942 9.61355 5.47453C9.43421 5.48102 9.29163 5.32774 9.31023 5.14926C9.49511 3.37215 11.1684 1.34235 14.1221 1.34235C17.6278 1.34235 18.8071 4.05305 19.0523 5.41711C19.1 5.6827 18.8353 5.89801 18.5871 5.79211Z" fill="#4E5660"/>
<path d="M1.9573 18.6577C1.45664 18.6577 1.07637 18.2006 1.17476 17.7098C1.61476 15.5143 3.5534 13.8605 5.87832 13.8605C8.20324 13.8605 10.1419 15.5143 10.5819 17.7098C10.6803 18.2007 10.3 18.6577 9.79934 18.6577H1.9573Z" fill="#8EAFE2"/>
<path d="M5.87766 16.4577C7.01228 16.4577 7.93207 15.5379 7.93207 14.4033C7.93207 13.2687 7.01228 12.3489 5.87766 12.3489C4.74303 12.3489 3.82324 13.2687 3.82324 14.4033C3.82324 15.5379 4.74303 16.4577 5.87766 16.4577Z" fill="#FFD4BE"/>
<path d="M1.385 12.0107C2.14991 12.0107 2.77 11.3945 2.77 10.6344C2.77 9.8743 2.14991 9.25812 1.385 9.25812C0.620086 9.25812 0 9.8743 0 10.6344C0 11.3945 0.620086 12.0107 1.385 12.0107Z" fill="#FFBF9E"/>
<path d="M10.3704 12.0107C11.1353 12.0107 11.7554 11.3945 11.7554 10.6344C11.7554 9.8743 11.1353 9.25812 10.3704 9.25812C9.60544 9.25812 8.98535 9.8743 8.98535 10.6344C8.98535 11.3945 9.60544 12.0107 10.3704 12.0107Z" fill="#FFBF9E"/>
<path d="M5.87836 13.8605C4.61633 13.8605 3.46875 14.3485 2.6123 15.1453C3.53363 15.7954 4.66145 16.1786 5.87836 16.1786C7.09527 16.1786 8.22309 15.7954 9.14441 15.1453C8.28797 14.3485 7.14043 13.8605 5.87836 13.8605Z" fill="#6A96D7"/>
<path d="M5.87766 12.3489C4.74305 12.3489 3.82324 13.2687 3.82324 14.4033C3.82324 15.0732 4.14395 15.6679 4.64004 16.043C5.0384 16.1315 5.45254 16.1785 5.87766 16.1785C6.30277 16.1785 6.71688 16.1315 7.11527 16.043C7.61137 15.6679 7.93207 15.0731 7.93207 14.4033C7.93207 13.2687 7.01227 12.3489 5.87766 12.3489Z" fill="#FFBF9E"/>
<path d="M5.87832 15.2736C8.48463 15.2736 10.5975 13.1966 10.5975 10.6344C10.5975 8.07227 8.48463 5.99524 5.87832 5.99524C3.27201 5.99524 1.15918 8.07227 1.15918 10.6344C1.15918 13.1966 3.27201 15.2736 5.87832 15.2736Z" fill="#FFD4BE"/>
<path d="M2.93543 12.4759C3.53511 12.4759 4.02125 12.0888 4.02125 11.6112C4.02125 11.1337 3.53511 10.7465 2.93543 10.7465C2.33575 10.7465 1.84961 11.1337 1.84961 11.6112C1.84961 12.0888 2.33575 12.4759 2.93543 12.4759Z" fill="#EDA1AB"/>
<path d="M8.8202 12.4759C9.41988 12.4759 9.90602 12.0888 9.90602 11.6112C9.90602 11.1337 9.41988 10.7465 8.8202 10.7465C8.22051 10.7465 7.73438 11.1337 7.73438 11.6112C7.73438 12.0888 8.22051 12.4759 8.8202 12.4759Z" fill="#EDA1AB"/>
<path d="M3.11719 10.8832C3.03949 10.8832 2.96497 10.8523 2.91003 10.7974C2.85508 10.7424 2.82422 10.6679 2.82422 10.5902V10.1242C2.82422 10.0465 2.85508 9.97196 2.91003 9.91702C2.96497 9.86207 3.03949 9.83121 3.11719 9.83121C3.19489 9.83121 3.26941 9.86207 3.32435 9.91702C3.37929 9.97196 3.41016 10.0465 3.41016 10.1242V10.5902C3.41016 10.6679 3.37929 10.7424 3.32435 10.7974C3.26941 10.8523 3.19489 10.8832 3.11719 10.8832ZM6.75379 10.9468C6.75379 10.4058 6.36184 10.355 5.87836 10.355C5.39488 10.355 5.00293 10.4058 5.00293 10.9468C5.00293 11.4878 5.39488 11.9264 5.87836 11.9264C6.36188 11.9264 6.75379 11.4878 6.75379 10.9468ZM8.63957 10.8832C8.56187 10.8832 8.48735 10.8523 8.43241 10.7974C8.37747 10.7424 8.3466 10.6679 8.3466 10.5902V10.1242C8.3466 10.0465 8.37747 9.97196 8.43241 9.91702C8.48735 9.86207 8.56187 9.83121 8.63957 9.83121C8.71727 9.83121 8.79179 9.86207 8.84673 9.91702C8.90167 9.97196 8.93254 10.0465 8.93254 10.1242V10.5902C8.93254 10.6679 8.90167 10.7424 8.84673 10.7974C8.79179 10.8523 8.71727 10.8832 8.63957 10.8832Z" fill="#4E5660"/>
<path d="M10.426 9.94798C10.6868 10.0666 10.9732 9.84462 10.9243 9.56224C10.6534 7.99611 9.28213 5.58408 5.87799 5.58408C2.47381 5.58408 1.10256 7.99622 0.831664 9.56236C0.782758 9.84501 1.06955 10.0665 1.33065 9.94775C1.81975 9.72529 2.45916 9.28267 2.93526 8.52775C3.89475 9.26603 7.16233 10.102 8.89338 8.63849C9.36065 9.3265 9.96123 9.73665 10.426 9.94798Z" fill="#4E5660"/>
</svg>
